<svg id="Layer_1" xmlns="http://www.w3.org/2000/svg" viewBox="0 0 23.2 67.7"><style>.st0,.st1{fill:#fff;stroke:#1d2233;stroke-linecap:round;stroke-linejoin:round;stroke-miterlimit:10}.st1{fill:none}</style><path class="st0" d="M21.2 67.2H2l2.2-29.9H19z"/><path class="st1" d="M11.6 19.5v17.8"/><path class="st0" d="M22.7 10.3c0 1.8-3.1 2.7-3.9 4.1-.9 1.5-.2 4.6-1.6 5.5-1.4.8-3.8-1.3-5.6-1.3-1.8 0-4.1 2.1-5.6 1.3-1.5-.9-.8-4-1.6-5.5C3.6 13 .5 12 .5 10.3c0-1.8 3.1-2.7 3.9-4.1.9-1.5.2-4.6 1.6-5.5C7.5-.1 9.8 2 11.6 2c1.8 0 4.1-2.1 5.6-1.3 1.5.9.8 4 1.6 5.5.8 1.4 3.9 2.3 3.9 4.1zM13.7 26c-1.6 1.6-2.3 3.8-2 5.9 2.1.3 4.3-.4 5.9-2 1.6-1.6 2.3-3.8 2-5.9-2.2-.3-4.3.4-5.9 2z"/><circle class="st1" cx="11.6" cy="10.3" r="4.2"/></svg>