<svg width="62px" height="71px" viewBox="0 0 50 57" version="1.1" xmlns="http://www.w3.org/2000/svg" xmlns:xlink="http://www.w3.org/1999/xlink">
    <g id="Page-1" stroke="none" stroke-width="1" fill="none" fill-rule="evenodd">
        <g id="hand" transform="translate(-25.562777, 0.149021)" stroke="#000000">
            <path class="waving-hand--hand" d="M38.6,25.9 L44.7,2.9 C45,1.3 46.6,0.2 48.2,0.5 C49.8,0.8 50.9,2.4 50.6,4 L46.1,22.3 L56.5,5 C57.2,3.5 59,2.9 60.5,3.6 C62,4.3 62.6,6.1 61.9,7.6 L51.3,25.3 L63.1,12.5 C64.1,11.1 65.9,10.8 67.3,11.8 C68.7,12.8 69,14.6 68,16 L57,29.3 L69.9,20 C71.1,18.8 73,18.9 74.2,20.1 C75.4,21.3 75.3,23.2 74.1,24.4 L60.9,35.4 C60.9,35.4 52.9,49.1 48.9,51.3 L46.2,55.7 C46.2,55.7 35.8,58 26.8,44.9 C28.5,43.1 30.7,40.4 30.7,40.4 L31.6,12.8 C31.6,11.9 32.5,11.3 33.3,11.6 C35.8,12.4 40.1,15.2 38.8,25.1 C38.7,25.6 38.9,26 39.3,26.3 C41.2,27.9 47,33.5 42.7,40.4" id="Path"></path>
        </g>
    </g>
</svg>