<svg height="708" viewBox="0 0 708 708" width="708" xmlns="http://www.w3.org/2000/svg"><path d="M679.46 217C609.007 49.66 423.21-37.065 249.693 16.397 76.175 69.858-28.597 246.109 7.343 424.083 43.283 602.057 208.24 723.84 388.906 705.777c180.666-18.062 318.249-170.09 318.244-351.657A351.08 351.08 0 0 0 679.46 217zm-246.38 44.34a10.31 10.31 0 0 0-3 7.29v75.17H279.7v-75.17a10.31 10.31 0 0 0-3-7.29l-67.9-67.88H501zm-174 11.57v162.43l-64.87 64.86V208zm17.61 174a10.31 10.31 0 0 0 3-7.29v-75.18h150.36v75.17a10.31 10.31 0 0 0 3 7.29L501 514.79H208.8zm174-11.57V272.9l64.85-64.9v292.2zM208.8 172.83L354.88 26.75 501 172.83zM173.59 500.2L27.51 354.12 173.59 208zM501 535.41L354.88 681.49 208.8 535.41zM536.17 208l146.08 146.12L536.17 500.2zm53.21-88.43a329.16 329.16 0 0 1 96.13 208.6L533.16 175.86 380.78 23.48a329.16 329.16 0 0 1 208.61 96.13zm-469 0A329.16 329.16 0 0 1 329 23.48L24.24 328.22a329.16 329.16 0 0 1 96.13-208.61zm0 469A329.16 329.16 0 0 1 24.24 380L329 684.76a329.16 329.16 0 0 1-208.63-96.13zm469 0a329.16 329.16 0 0 1-208.6 96.13l152.36-152.3L685.52 380a329.16 329.16 0 0 1-96.13 208.63z" fill="#404042"></path></svg>