<svg width="50" height="59" viewBox="0 0 50 59" xmlns="http://www.w3.org/2000/svg"><title>Expert_Icon</title><g transform="translate(1 1)" fill="none" fill-rule="evenodd"><circle fill="#FFF" fill-rule="nonzero" cx="24.5" cy="23.5" r="23.5"/><path d="M9.651 42.359C4.133 38.066.454 31.32.454 23.718.454 10.718 11 .17 24 .17s23.546 10.547 23.546 23.547c0 7.48-3.433 14.103-8.83 18.395" stroke="#000" fill="#FFF" stroke-linecap="round" stroke-linejoin="round"/><path stroke="#000" stroke-linecap="round" stroke-linejoin="round" d="M25.717 18.322v8.462H20.81M16.52 32.548a14.069 14.069 0 0 0 14.838 0"/><circle fill="#738494" fill-rule="nonzero" cx="32.339" cy="18.444" r="1.717"/><circle fill="#738494" fill-rule="nonzero" cx="15.661" cy="18.444" r="1.717"/><circle stroke="#000" stroke-linecap="round" stroke-linejoin="round" cx="15.661" cy="18.444" r="6.745"/><circle stroke="#000" stroke-linecap="round" stroke-linejoin="round" cx="32.339" cy="18.444" r="6.745"/><path d="M25.717 18.444h-3.434" stroke="#000" stroke-linecap="round" stroke-linejoin="round"/><path d="M25.962 45.18h-2.207c.98 0 1.717.735 1.717 1.716v4.783c0 .981-.736 1.717-1.717 1.717h2.207c.981 0 1.717-.736 1.717-1.717v-4.783c-.123-.98-.858-1.717-1.717-1.717z" fill="#E6E7E8" fill-rule="nonzero"/><path d="M21.18 52.292l-9.444 4.17c-1.226.613-2.698-.368-2.698-1.717V43.83c0-1.349 1.472-2.33 2.698-1.717l9.443 4.17" stroke="#000" fill="#FFF" stroke-linecap="round" stroke-linejoin="round"/><path d="M21.18 49.226h-3.435" stroke="#000" stroke-linecap="round" stroke-linejoin="round"/><path d="M25.84 53.273h-2.944c-.98 0-1.717-.735-1.717-1.717v-4.782c0-.981.736-1.717 1.717-1.717h2.944c.98 0 1.716.736 1.716 1.717v4.905c-.122.859-.858 1.594-1.716 1.594z" stroke="#000" fill="#FFF" stroke-linecap="round" stroke-linejoin="round"/><path d="M37 41.99c.613.369 1.103.982 1.103 1.718v10.914c0 .736-.49 1.472-1.103 1.717 1.226.614 2.698-.368 2.698-1.717V43.708c0-1.35-1.472-2.208-2.698-1.717z" fill="#E6E7E8" fill-rule="nonzero"/><path d="M27.556 52.292L37 56.462c1.226.613 2.698-.368 2.698-1.717V43.83c0-1.349-1.472-2.33-2.698-1.717l-9.444 4.17" stroke="#000" fill="#FFF" stroke-linecap="round" stroke-linejoin="round"/><path d="M27.556 49.226h3.434" stroke="#000" stroke-linecap="round" stroke-linejoin="round"/></g></svg>