<svg width="58" height="62" viewBox="0 0 58 62" xmlns="http://www.w3.org/2000/svg"><title>Open_Ideas_Icon</title><g transform="translate(1 1)" fill="none" fill-rule="evenodd"><path d="M31.542 20.924c-1.488-2.139-2.325-4.743-2.325-7.533C29.217 6.045 35.17 0 42.61 0 50.049 0 56 5.952 56 13.391c0 7.44-5.952 13.392-13.391 13.392-2.604 0-5.022-.744-7.068-2.046h-3.906v-3.813h-.093z" stroke="#000" fill="#FFF" stroke-linecap="round" stroke-linejoin="round"/><circle stroke="#000" fill="#FFF" stroke-linecap="round" stroke-linejoin="round" cx="17.774" cy="42.609" r="17.774"/><circle fill="#738494" fill-rule="nonzero" cx="12.904" cy="36.278" r="1.217"/><circle fill="#738494" fill-rule="nonzero" cx="25.565" cy="36.278" r="1.217"/><path d="M26.783 46.748s-1.963 7.438-9.253 5.53" stroke="#1C2233" stroke-linecap="round" stroke-linejoin="round"/><path stroke="#000" stroke-linecap="round" stroke-linejoin="round" d="M18.991 38.47v6.33h-3.895"/><circle stroke="#000" stroke-linecap="round" stroke-linejoin="round" cx="24.104" cy="38.713" r="5.113"/><circle stroke="#000" stroke-linecap="round" stroke-linejoin="round" cx="10.957" cy="38.713" r="5.113"/><path d="M18.504 38.47H16.07" stroke="#1C2233" stroke-linecap="round" stroke-linejoin="round"/><path stroke="#000" stroke-linecap="round" stroke-linejoin="round" d="M37.496 12.661h5.843v5.843h-5.843zM43.339 12.661h3.409v5.843h-3.409z"/><path stroke="#000" stroke-linecap="round" stroke-linejoin="round" d="M42.688 10.713l1.138 2.435H37.66l-1.138-2.435z"/><path stroke="#000" stroke-linecap="round" stroke-linejoin="round" d="M44.605 10.713l-1.266 2.435h3.701l1.169-2.435z"/><path d="M42.365 6.33v1.948M39.443 6.817l.682 1.461M45.482 6.817L44.8 8.278" stroke="#F8B1B0" stroke-linecap="round" stroke-linejoin="round"/></g></svg>