<svg width="50" height="57" viewBox="0 0 50 57" xmlns="http://www.w3.org/2000/svg"><title>No_Clue_Icon</title><g transform="translate(1 1)" fill="none" fill-rule="evenodd"><path d="M6.164 40c-3.84-4.212-6.07-9.787-6.07-15.857C.094 11.01 10.748.357 23.88.357c13.132 0 23.786 10.654 23.786 23.786 0 12.636-9.787 22.918-22.176 23.662l-1.734.124" stroke="#000" stroke-width=".75" fill="#FFF" stroke-linecap="round" stroke-linejoin="round"/><path d="M22.27 41.982l8.176-1.734c1.115-.248 1.982-1.24 1.858-2.23-.124-1.363-1.363-2.354-2.726-2.106l-14.99 3.345c-.248 0-.371-.124-.248-.372.62-1.61 2.107-6.69-1.734-9.787-.62-.496-1.363-.62-1.982-.372-.991.496-1.363 1.61-.991 2.602 2.354 6.566-6.442 7.557-5.947 15.362.372 5.079 4.956 8.92 10.035 8.92 4.088-.124 5.823-.868 7.681-1.487 1.115-.372 1.858-1.363 1.61-2.478-.123-.62-.495-.991-.99-1.363 1.114-.247 1.858-1.362 1.61-2.477-.124-.744-.743-1.363-1.487-1.61 1.24-.249 1.982-1.488 1.735-2.602a2.599 2.599 0 0 0-1.61-1.611z" stroke="#000" stroke-width=".75" fill="#FFF" stroke-linecap="round" stroke-linejoin="round"/><path d="M11.863 8.161s5.575-2.725 11.026 0M26.977 10.143s5.327-2.477 11.397.62M29.702 31.823s-4.583-3.964-10.778-3.097" stroke="#000" stroke-width=".75" stroke-linecap="round" stroke-linejoin="round"/><circle stroke="#000" stroke-width=".75" stroke-linecap="round" stroke-linejoin="round" cx="15.332" cy="18.815" r="6.814"/><circle stroke="#000" stroke-width=".75" stroke-linecap="round" stroke-linejoin="round" cx="32.18" cy="18.815" r="6.814"/><path d="M25.49 18.815h-3.469" stroke="#000" stroke-width=".75" stroke-linecap="round" stroke-linejoin="round"/><circle fill="#738494" fill-rule="nonzero" cx="15.332" cy="18.815" r="1.734"/><circle fill="#738494" fill-rule="nonzero" cx="32.304" cy="18.815" r="1.734"/></g></svg>