<svg id="Layer_1" xmlns="http://www.w3.org/2000/svg" viewBox="0 0 50.1 61.2"><style>.st0{fill:#fff;stroke:#1d2233;stroke-linecap:round;stroke-linejoin:round;stroke-miterlimit:10}.st1{fill:#1d2233}</style><path class="st0" d="M19.9 5.7S18.3-.1 14.5.5 5.3 4.9 7.7 9s4.7 4.3 4.7 4.3M30.2 5.7S31.8-.1 35.6.5s9.1 4.3 6.8 8.4-4.7 4.3-4.7 4.3"/><circle class="st0" cx="25.1" cy="18.5" r="13.8"/><circle class="st1" cx="19.1" cy="15.8" r="1.5"/><circle class="st1" cx="31.4" cy="15.8" r="1.5"/><path class="st0" d="M25.1 18.5c5.3 0 8.4 2.1 8.4 6.8 0 3.7-3.8 7-8.4 7M25.1 18.5c-5.3 0-8.4 2.1-8.4 6.8 0 3.7 3.8 7 8.4 7"/><path class="st1" d="M27.9 22.4c0 .9-1.3 2.2-2.8 2.2-1.6 0-2.8-1.3-2.8-2.2 0-.9 1.3-1.6 2.8-1.6 1.6 0 2.8.7 2.8 1.6z"/><path class="st0" d="M44.9 43.6c5.9-.5 5.7-7.5 2.8-12.4-3.2-5.3-9.6-8.1-9.6-8.1-.5 1.5-1.3 2.9-2.3 4.1 4 3.2 6.5 8 6.5 13.4 0 .6 0 1.1-.1 1.7M7.9 42.3c-.1-.6-.1-1.1-.1-1.7 0-5.4 2.5-10.3 6.5-13.4-1-1.2-1.8-2.6-2.3-4.1 0 0-6.4 2.8-9.6 8.1-2.9 4.9-3.2 11.9 2.8 12.4"/><ellipse class="st0" cx="9.8" cy="51.4" rx="8.2" ry="9.3"/><ellipse class="st0" cx="40.4" cy="51.4" rx="8.2" ry="9.3"/><path class="st0" d="M42.2 42.4c-.5-.1-1.2-.2-1.8-.2-4.5 0-8.2 4.2-8.2 9.3 0 1.6.4 3.1 1 4.4C30.8 57.2 28 58 25 58c-2.9 0-5.7-.8-8.1-2h-.1c.6-1.3 1-2.9 1-4.5 0-5.1-3.7-9.3-8.2-9.3-.6 0-1.2.1-1.8.2-.1-.6-.1-1.1-.1-1.7 0-5.4 2.5-10.3 6.5-13.4a13.774 13.774 0 0 0 21.4 0c4 3.2 6.5 8 6.5 13.4.2.5.2 1.1.1 1.7z"/></svg>