<svg id="Layer_1" xmlns="http://www.w3.org/2000/svg" viewBox="0 0 81.5 50"><style>.st0,.st1{fill:#fff;stroke:#1d2233;stroke-linecap:round;stroke-linejoin:round;stroke-miterlimit:10}.st1{fill:none}</style><path class="st0" d="M76.2 19.1l4.4 4.4c.2.2.4.6.4.9v14.2H.5V24.4c0-.3.1-.7.4-.9l4.4-4.4c.2-.2.6-.4.9-.4h69.1c.4 0 .7.1.9.4z"/><path class="st1" d="M.5 38.6v10.5M81 38.6v10.5"/><path class="st0" d="M7 3.3h67.5v15.4H7z"/><path class="st1" d="M7 3.3V.8M74.5 3.3V.8M39 12.5H8.7c-1 0-1.8.8-1.8 1.8V17c0 1 .8 1.8 1.8 1.8H39c1 0 1.8-.8 1.8-1.8v-2.7c0-1-.8-1.8-1.8-1.8z"/><path class="st1" d="M72.8 12.5H42.5c-1 0-1.8.8-1.8 1.8V17c0 1 .8 1.8 1.8 1.8h30.3c1 0 1.8-.8 1.8-1.8v-2.7c-.1-1-.9-1.8-1.8-1.8z"/></svg>