<svg id="Layer_1" xmlns="http://www.w3.org/2000/svg" viewBox="0 0 65.9 55.5"><style>.st0,.st1,.st2{stroke-linecap:round;stroke-linejoin:round;stroke-miterlimit:10}.st0{stroke:#1d2233;fill:#fff}.st1,.st2{fill:none}.st1{stroke-width:1.5;stroke:#bcbec0}.st2{stroke:#1d2233}</style><path class="st0" d="M49 26.2s4.5-1.9 6.8 2.9l3.8-2.9s-2.3-4.3-7-4.3-6.2 3.1-6.2 3.1"/><path class="st0" d="M57.5 40.7s-5.3-11.4-8.1-14.2c-2.9-2.8-8-1.2-14.4-1.2s-6.5-2.2-7.5-6.4C23.6 3.2 10 2.5 10 2.5L7.9.5l-.1 3.3c-.5.8-4 7.3-5.6 9.6-.4.6-.7 1.3-.7 2.1 0 1.9 1.5 3.4 3.4 3.4.7 0 1.5-.3 1.9-.6 1.7-1 6.4-4.7 6.4-4.7 2.6 6.2 1 13.7 1 13.7C12.3 29.6 7.4 40 7.4 40c2.3 1.5 4.7 2.8 7.1 3.9 1.8-6.3 9.4-11.1 18.5-11.1s16.7 4.7 18.5 11.1c2-.9 4-2 6-3.2z"/><path class="st0" d="M1.7 35.5c17.6 16.4 44.9 16.4 62.5 0 .5-.4 1.2-.1 1.2.5v4.6c0 .6-.2 1.2-.7 1.6-17.7 17-45.8 17-63.5 0-.4-.4-.7-1-.7-1.6V36c0-.6.8-.9 1.2-.5z"/><path class="st2" d="M29 23.5s1.2-6.5-1.6-11.9-9-10.5-18.8-10.5M6.4 10.5c0-.6.5-1.1 1.1-1.1s1.1.5 1.1 1.1M2.6 12.6s4.1 1.3 4.9 5.1M6.9 15.9S14.6 8.7 15.7 4M13.1 13.5S11.5 8 7.8 3.8"/></svg>