<svg id="Layer_1" xmlns="http://www.w3.org/2000/svg" viewBox="0 0 79.3 82"><style>.st0,.st1{fill:#fff;stroke:#1d2233;stroke-linecap:round;stroke-linejoin:round;stroke-miterlimit:10}.st1{fill:none}</style><path class="st0" d="M.5 37.4H42v44.1H.5zM42 37.4h36.8v44.1H42z"/><path class="st1" d="M.5 45.4H42"/><path transform="rotate(90 21.25 63.477)" class="st1" d="M9.7 49.2h23.2v28.6H9.7z"/><path class="st1" d="M12.8 56.6h16.9M11.1 39.8v3.3M17.9 39.8v3.3M24.6 39.8v3.3M31.4 39.8v3.3M60.4 37.4v44.1M56.8 54.9v5.2M63.7 54.9v5.2M53.7 28.4c0-1.2-.9-2.1-2.1-2.1s-2.1.9-2.1 2.1v9M49.5 33.4h-1.7v-1.2M20.7.8v9.5"/><path class="st0" d="M18.2 12.8c0-1.4 1.1-2.5 2.5-2.5s2.5 1.1 2.5 2.5v3.6h-4.9v-3.6zM37.2 12.8c0-1.4 1.1-2.5 2.5-2.5s2.5 1.1 2.5 2.5v3.6h-4.9v-3.6zM56.1 12.8c0-1.4 1.1-2.5 2.5-2.5s2.5 1.1 2.5 2.5v3.6h-4.9v-3.6z"/><path class="st1" d="M39.6.8v9.5M58.6.8v9.5"/></svg>