<svg id="Layer_1" xmlns="http://www.w3.org/2000/svg" viewBox="0 0 78.9 52.3"><style>.st0{stroke:#bcbec0;stroke-width:1.5;stroke-linecap:round;stroke-linejoin:round;stroke-miterlimit:10}.st0,.st1{fill:none}.st1,.st2{stroke:#1d2233;stroke-linecap:round;stroke-linejoin:round;stroke-miterlimit:10}.st2,.st3{fill:#fff}</style><path class="st1" d="M59.8 8.6c0-4.5 3.6-8.1 8.1-8.1s8.3 3.6 8.3 8.1c0 2.9-.6 8.5-4.1 13.1"/><path class="st2" d="M56 12.4c0-2.1 1.7-3.8 3.8-3.8 2.1 0 3.8 1.7 3.8 3.8H56z"/><path class="st3" d="M16 51.8C3.4 39.7 2.9 21.7 2.9 21.7H76s-.5 17.9-13.1 30.1H16z"/><path class="st1" d="M13.1 51.8h52.7M2.9 21.7S3.4 39.6 16 51.8M76 21.7s-.5 17.9-13.1 30.1"/><path class="st2" d="M17.9 18.3h16.2v21.2H17.9z"/><path class="st1" d="M17.9 34h16.3"/><g><path class="st1" d="M34.2 21.7h44.1M.7 21.7h17.2"/></g></svg>