<!--?xml version="1.0" encoding="UTF-8"?-->
<svg width="182px" height="242px" viewBox="0 0 182 242" version="1.1" xmlns="http://www.w3.org/2000/svg" xmlns:xlink="http://www.w3.org/1999/xlink">
    <!-- Generator: Sketch 52.5 (67469) - http://www.bohemiancoding.com/sketch -->
    <title>Cat_Plant_Hello_Screen</title>
    <desc>Created with Sketch.</desc>
    <g id="Desktop-V3" stroke="none" stroke-width="1" fill="none" fill-rule="evenodd">
        <g id="0_Landing-page" transform="translate(-507.000000, -393.000000)">
            <g id="Cat_Plant_Hello_Screen" transform="translate(493.000000, 395.000000)">
                <g id="leaf---appear" transform="translate(0.000000, 24.000000)">
                    <g class="leaf---moving animated fadeInRight delay-0.25s" transform="translate(54.569163, 85.956238) rotate(-45.000000) translate(-54.569163, -85.956238) translate(17.487196, 46.289572)">
                        <path d="M12.1387103,78.0537634 C12.1387103,78.0537634 17.3314625,71.7388528 26.8303995,75.401501 C26.8303995,75.401501 24.6773071,56.8988129 26.8303995,56.8988129 C28.9834918,56.8988129 31.7065204,71.23366 29.1734706,75.7172465 C29.1734706,75.7172465 36.8359464,77.801167 37.2159038,70.7284671 C37.5958613,63.6557673 30.8832792,46.6055087 34.5562015,47.1738506 C38.2291238,47.6790435 42.0920248,69.0234413 39.052365,75.0226064 C39.052365,75.0226064 51.2743305,74.3279662 51.907593,71.9283002 C52.6041817,69.5286341 50.2611106,53.362463 45.0683584,46.1634649 C39.8756062,38.9644668 44.7517271,40.4800454 46.0815783,43.0060096 C47.4114295,45.5319739 54.7572741,57.1514094 54.6306216,69.3391868 C54.6306216,69.3391868 63.8129273,64.3504074 65.1427784,57.1514094 C66.4726296,49.9524113 48.9312594,34.1651348 55.4538628,33.2810473 C61.9764661,32.4601089 67.9924595,51.6574371 67.8024808,57.1514094 C67.8024808,57.1514094 76.351524,46.794956 73.6284954,26.4609439 C70.9687931,6.12693173 50.3877631,15.7887449 49.3745431,16.4833851 C49.3745431,16.4833851 49.8811531,4.29560765 38.1657975,0.822406826 C26.450442,-2.650794 17.9013987,6.00063352 17.9013987,6.00063352 C17.9013987,6.00063352 38.9890387,2.14853805 38.1657975,9.47383435 C37.3425563,16.7991306 28.2869031,4.99024782 13.088604,8.33715044 C13.088604,8.33715044 6.56600067,13.5153771 3.71631958,19.7039895 C3.71631958,19.7039895 32.3397829,10.8631147 34.3028965,17.6832181 C35.3161165,22.5456993 16.2549163,14.8415084 3.71631958,23.6823832 C3.71631958,23.6823832 -0.969822637,29.0500572 0.233376042,36.3753535 C0.233376042,36.3753535 12.7719728,23.6823832 27.6536407,29.3658027 C30.5033217,30.691934 7.89585184,29.55525 1.24659598,38.2066776 C1.24659598,38.2066776 -0.273233928,44.5215882 0.043397303,46.0371667 C0.043397303,46.0371667 13.2785828,33.0284509 22.6508672,39.0276159 C23.6640872,40.3537472 2.25981592,43.1323078 0.92996475,47.8684908 C-0.399886421,52.6046737 1.94318469,59.7405227 1.94318469,59.7405227 C1.94318469,59.7405227 9.47900799,51.0890952 14.7984127,53.0467175 C20.1811436,55.0674889 3.58966709,57.530304 3.27303586,62.0770396 C2.95640463,66.6237753 13.341909,74.8963081 12.1387103,78.0537634 Z" id="Shape" stroke="#000000" stroke-width="2.410368" fill="#FFFFFF" fill-rule="nonzero" stroke-linecap="round" stroke-linejoin="round"></path>
                        <path d="M49.8688525,17.9139785 C49.8688525,17.9139785 21.2408052,50.1287183 12.7868852,79.3333333" id="vain" stroke="#1C2233" stroke-width="2.272768"></path>
                    </g>
                </g>
                <path class="leaf--stem" d="M62.6785574,92.6847362 C62.6785574,92.6847362 88.5798664,115.613506 89.6685919,121.435549 C92.9720889,127.15984 107.941663,165.034733 107.365279,186.817204" id="stem" stroke="#1C2233" stroke-width="2.272768"></path>
                <g id="leaf" transform="translate(39.639344, 37.107527)">
                    <path d="M56.2622951,67.8172043 C56.2622951,67.8172043 61.0014532,88.2263441 62.0901787,91.9370968 C63.1148616,95.6478495 68.3023184,128.148925 67.7259344,142.032258" id="Shape" stroke="#1C2233" stroke-width="2.272768"></path>
                    <path d="M12.1387103,78.0537634 C12.1387103,78.0537634 17.3314625,71.7388528 26.8303995,75.401501 C26.8303995,75.401501 24.6773071,56.8988129 26.8303995,56.8988129 C28.9834918,56.8988129 31.7065204,71.23366 29.1734706,75.7172465 C29.1734706,75.7172465 36.8359464,77.801167 37.2159038,70.7284671 C37.5958613,63.6557673 30.8832792,46.6055087 34.5562015,47.1738506 C38.2291238,47.6790435 42.0920248,69.0234413 39.052365,75.0226064 C39.052365,75.0226064 51.2743305,74.3279662 51.907593,71.9283002 C52.6041817,69.5286341 50.2611106,53.362463 45.0683584,46.1634649 C39.8756062,38.9644668 44.7517271,40.4800454 46.0815783,43.0060096 C47.4114295,45.5319739 54.7572741,57.1514094 54.6306216,69.3391868 C54.6306216,69.3391868 63.8129273,64.3504074 65.1427784,57.1514094 C66.4726296,49.9524113 48.9312594,34.1651348 55.4538628,33.2810473 C61.9764661,32.4601089 67.9924595,51.6574371 67.8024808,57.1514094 C67.8024808,57.1514094 76.351524,46.794956 73.6284954,26.4609439 C70.9687931,6.12693173 50.3877631,15.7887449 49.3745431,16.4833851 C49.3745431,16.4833851 49.8811531,4.29560765 38.1657975,0.822406826 C26.450442,-2.650794 17.9013987,6.00063352 17.9013987,6.00063352 C17.9013987,6.00063352 38.9890387,2.14853805 38.1657975,9.47383435 C37.3425563,16.7991306 28.2869031,4.99024782 13.088604,8.33715044 C13.088604,8.33715044 6.56600067,13.5153771 3.71631958,19.7039895 C3.71631958,19.7039895 32.3397829,10.8631147 34.3028965,17.6832181 C35.3161165,22.5456993 16.2549163,14.8415084 3.71631958,23.6823832 C3.71631958,23.6823832 -0.969822637,29.0500572 0.233376042,36.3753535 C0.233376042,36.3753535 12.7719728,23.6823832 27.6536407,29.3658027 C30.5033217,30.691934 7.89585184,29.55525 1.24659598,38.2066776 C1.24659598,38.2066776 -0.273233928,44.5215882 0.043397303,46.0371667 C0.043397303,46.0371667 13.2785828,33.0284509 22.6508672,39.0276159 C23.6640872,40.3537472 2.25981592,43.1323078 0.92996475,47.8684908 C-0.399886421,52.6046737 1.94318469,59.7405227 1.94318469,59.7405227 C1.94318469,59.7405227 9.47900799,51.0890952 14.7984127,53.0467175 C20.1811436,55.0674889 3.58966709,57.530304 3.27303586,62.0770396 C2.95640463,66.6237753 13.341909,74.8963081 12.1387103,78.0537634 Z" id="Shape" stroke="#000000" stroke-width="2.410368" fill="#FFFFFF" fill-rule="nonzero" stroke-linecap="round" stroke-linejoin="round"></path>
                    <path d="M49.8688525,17.9139785 C49.8688525,17.9139785 21.2408052,50.1287183 12.7868852,79.3333333" id="Shape" stroke="#1C2233" stroke-width="2.272768"></path>
                </g>
                <path d="M117.639344,83.172043 C117.639344,83.172043 112.477534,134.487737 114.129314,177.860215" id="Shape" stroke="#1C2233" stroke-width="2.272768"></path>
                <path d="M116.360656,179.139785 C116.360656,179.139785 122.485979,159.67756 121.330258,140.853442 C120.174536,122.093134 118.383168,106.204301 118.383168,106.204301" id="Shape" stroke="#1C2233" stroke-width="2.272768"></path>
                <path d="M120.196721,177.860215 C120.196721,177.860215 121.380149,161.639281 141.934426,144.591398" id="Shape" stroke="#1C2233" stroke-width="2.272768"></path>
                <path d="M129.250823,177.860215 C129.250823,177.860215 127.534137,134.439507 138.098361,110.043011" id="Shape" stroke="#1C2233" stroke-width="2.272768"></path>
                <path d="M118.776925,106.350436 C118.776925,106.350436 116.441084,106.157113 115.115336,105.770467 C113.789588,105.31938 103.751784,106.350436 106.655803,118.65867 C109.559822,130.966904 137.337394,139.473118 137.337394,139.473118 C137.337394,139.473118 144.029264,117.36985 133.170758,105.126056 C131.150571,102.870621 122.754169,99.7130111 118.776925,106.350436 Z" id="Shape" stroke="#000000" stroke-width="2.410368" fill="#FFFFFF" fill-rule="nonzero" stroke-linecap="round" stroke-linejoin="round"></path>
                <path d="M146.371928,21.0963646 C149.935354,22.3672299 156.425879,22.6849462 161.707385,29.2299027 C166.925258,35.7748592 168.45244,38.1895033 168.45244,38.1895033 C168.45244,38.1895033 173.288518,0.953149002 146.18103,0.571889401 C137.590629,0.889605735 131.4819,4.32094214 129.254759,7.43456221 L127.727576,5.59180748 C127.727576,5.59180748 121.93701,0 111.246733,0 C100.556456,0 89.6116487,8.76897081 87.0663447,19.6984127 C84.5210407,30.6278546 86.2391209,46.0053251 86.2391209,46.0053251 C86.2391209,46.0053251 103.292658,22.2401434 115.446484,23.0026626 C120.600725,23.828725 87.1936099,41.8114695 86.4300187,49.7543779 C85.6664275,57.6972862 97.8838868,69.4527906 97.8838868,69.4527906 C97.8838868,69.4527906 94.1295634,48.8647721 116.400973,45.8146953 C119.837134,45.6240655 99.601967,54.07532 100.365558,71.6132616 C100.683721,77.2050691 120.282562,82.7333333 121.555214,93.4086022 L139.245077,78.0946749 C139.245077,78.0946749 132.054593,58.7139785 134.536264,58.0150026 C137.017936,57.2524834 141.090422,73.7101895 141.726748,76.4425499 L157.762163,60.2390169 C157.762163,60.2390169 153.880575,47.0855607 148.026376,45.1792627 C142.108544,43.2729647 141.726748,38.9520225 143.953889,39.2061956 C146.18103,39.3968254 159.798407,49.1824885 161.325589,62.5265745 C161.325589,62.5265745 169.597827,58.0150026 168.388808,45.9417819 C167.179788,33.8685612 152.671555,27.1965182 146.562826,25.2902202 C142.617605,23.6380952 142.872135,19.8254992 146.371928,21.0963646 Z M95.784011,20.7786482 C93.55687,21.0963646 93.7477678,19.3171531 96.1658066,16.5847926 C98.647478,13.7888889 103.419923,12.2638505 105.837962,13.1534562 C108.574164,14.1701485 98.011152,20.5244752 95.784011,20.7786482 Z" id="Shape" stroke="#000000" stroke-width="2.410368" fill="#FFFFFF" fill-rule="nonzero" stroke-linecap="round" stroke-linejoin="round"></path>
                <path d="M193.955836,97.9470766 C190.883514,84.0817372 178.722238,85.7911626 174.753822,85.9177867 C170.721399,86.0444108 170.017325,82.0557516 176.802037,81.359319 C188.387252,80.2197021 193.955836,92.1223678 193.955836,92.1223678 C191.715601,70.6595822 183.458735,55.0215054 163.936687,55.0215054 C144.414639,55.0215054 148.255042,69.0767809 148.255042,69.0767809 C128.732995,63.062136 125.788686,77.68722 126.748786,93.515233 C127.708887,109.343246 151.199351,122.322217 164.384734,120.992664 C177.506111,119.66311 181.666547,127.956989 181.666547,127.956989 C181.60254,123.081961 197.028158,111.812416 193.955836,97.9470766 Z M179.234292,67.0507953 C180.066379,64.1384409 181.666547,64.5816252 182.434627,65.0881216 C187.555165,69.0134689 187.811191,75.4079861 187.427151,75.7245464 C186.979104,76.0411066 183.266715,72.6222558 182.434627,72.4956317 C181.60254,72.3690076 178.402205,69.9631496 179.234292,67.0507953 Z M146.334841,91.8691196 C142.366425,97.8204525 139.742149,105.354587 136.349793,104.658154 C132.957438,103.898409 139.038075,92.5022401 139.486122,91.5525594 C139.934169,90.6028786 142.238411,81.6758793 147.614975,83.765177 C147.614975,83.7018649 150.303257,85.9177867 146.334841,91.8691196 Z M161.440425,105.417899 C160.544331,108.83675 158.304096,113.711778 156.511908,113.395217 C154.71972,113.078657 154.5277,111.62248 156.063861,103.898409 C157.600022,96.1743392 162.080492,95.8577789 162.080492,95.8577789 C164.640761,96.2376512 162.336519,101.999048 161.440425,105.417899 Z" id="Shape" stroke="#000000" stroke-width="2.410368" fill="#FFFFFF" fill-rule="nonzero" stroke-linecap="round" stroke-linejoin="round"></path>
                <path d="M181.57377,127.956989 C181.57377,127.956989 181.7631,106.387487 168.300521,93.4332093 C154.837942,80.4789312 148.327869,69.0967742 148.327869,69.0967742" id="Shape" stroke="#1C2233" stroke-width="2.272768"></path>
                <path d="M118.918033,106.204301 C118.918033,106.204301 138.483885,125.310719 138.092568,138.193548" id="Shape" stroke="#1C2233" stroke-width="2.272768"></path>
                <path d="M129.147541,7.67741935 C129.147541,7.67741935 127.498984,84.9812205 121.47541,93.4086022" id="Shape" stroke="#1C2233" stroke-width="2.272768"></path>
                <path d="M142.30994,145.866046 C142.30994,145.866046 132.923167,146.059469 134.425051,137.484403 C135.926934,128.844863 144.062138,125.621154 155.514001,126.975112 C166.965864,128.32907 176.540373,140.127844 180.295082,140.450215 C180.295082,140.450215 179.043512,142.384441 175.476538,143.673924 C171.972143,144.963408 166.027187,154.827957 154.012117,154.827957 C141.997048,154.827957 144.249873,146.059469 142.30994,145.866046 Z" id="Shape" stroke="#000000" stroke-width="2.410368" fill="#FFFFFF" fill-rule="nonzero" stroke-linecap="round" stroke-linejoin="round"></path>
                <path d="M141.934426,145.870968 C141.934426,145.870968 148.402584,137.907369 157.496428,137.142864 C166.590273,136.378358 166.270068,137.588825 172.225896,139.882342 C173.378637,140.328303 175.812201,141.475061 180.295082,140.137177" id="Shape" stroke="#1C2233" stroke-width="2.272768"></path>
                <g class="cat---smile" transform="translate(71.606557, 174.021505)">
                    <path d="M9.38256918,6.07795699 L6.17461053,1.27956989 C6.17461053,1.27956989 5.24923784,9.27688172 3.95371608,11.1322581 C2.65819432,12.9876344 1.05421499,18.6177419 5.37262087,22.2645161 C5.37262087,22.2645161 6.17461053,25.3354839 6.29799356,36.9155914 C6.42137658,48.4956989 16.069102,63.8495241 30.2581498,63.8495241 L22.7114384,0.486084944 L21.3241128,6.07795699 C21.3858044,6.01397849 14.5029647,4.54247312 9.38256918,6.07795699 Z" id="Shape" stroke="#000000" stroke-width="2.410368" fill="#FFFFFF" fill-rule="nonzero" stroke-linecap="round" stroke-linejoin="round"></path>
                    <path d="M12.2624135,14.0487492 L12.7678525,12.915037 C12.8138015,12.855368 12.7678525,12.7956989 12.7219035,12.7956989 L11.5731784,12.7956989 C11.5272294,12.7956989 11.4812804,12.855368 11.5272294,12.915037 L12.1705155,14.0487492 C12.1705155,14.1084183 12.2164645,14.0487492 12.2624135,14.0487492 Z" id="Shape" fill="#000000" fill-rule="nonzero"></path>
                    <path d="M11.5081967,16.6344086 C11.5081967,16.6344086 12.2754098,17.8885703 12.7868852,18.0223166 C13.2983607,18.1560628 14.0655738,16.6344086 14.0655738,16.6344086" id="Shape" stroke="#000000" stroke-width="0.9888" stroke-linecap="round" stroke-linejoin="round"></path>
                    <g id="Group-4" transform="translate(0.000000, 14.075269)" stroke="#000000" stroke-linecap="round" stroke-linejoin="round" stroke-width="0.9888">
                        <path d="M10.2295082,0 C10.2295082,0 0.971155841,1.85537634 0,2.55913978" id="Shape"></path>
                        <path d="M8.95081967,1.27956989 C8.95081967,1.27956989 1.63336125,3.47311828 0,5.11827957" id="Shape"></path>
                    </g>
                    <g id="Group-4" transform="translate(15.344262, 14.075269)" stroke="#000000" stroke-linecap="round" stroke-linejoin="round" stroke-width="0.9888">
                        <path d="M0,0 C0,0 8.59968777,1.85537634 9.50175292,2.55913978" id="Shape"></path>
                        <path d="M1.18771911,1.27956989 C1.18771911,1.27956989 7.98459347,3.47311828 9.50175292,5.11827957" id="Shape"></path>
                    </g>
                    <ellipse id="Oval" fill="#000000" fill-rule="nonzero" cx="9.59016393" cy="10.8763441" rx="1.91803279" ry="1"></ellipse>
                    <ellipse id="Oval" fill="#000000" fill-rule="nonzero" cx="17.2622951" cy="10.8763441" rx="1.91803279" ry="1"></ellipse>
                </g>
                <!-- <g class="cat" transform="translate(76.721311, 175.301075)">
                    <path d="M9.38256918,4.7983871 L6.17461053,0 C6.17461053,0 5.24923784,7.99731183 3.95371608,9.85268817 C2.65819432,11.7080645 1.05421499,17.338172 5.37262087,20.9849462 C5.37262087,20.9849462 6.17461053,24.055914 6.29799356,35.6360215 C6.42137658,47.216129 8.82734557,62.6989247 23.0163934,62.6989247 L15.7984865,4.92634409 C15.860178,4.86236559 14.5029647,3.26290323 9.38256918,4.7983871 Z" id="Shape" stroke="#000000" stroke-width="2.410368" fill="#FFFFFF" fill-rule="nonzero" stroke-linecap="round" stroke-linejoin="round"></path>
                    <path d="M12.2624135,12.7691793 L12.7678525,11.6354672 C12.8138015,11.5757981 12.7678525,11.516129 12.7219035,11.516129 L11.5731784,11.516129 C11.5272294,11.516129 11.4812804,11.5757981 11.5272294,11.6354672 L12.1705155,12.7691793 C12.1705155,12.8288484 12.2164645,12.7691793 12.2624135,12.7691793 Z" id="Shape" fill="#000000" fill-rule="nonzero"></path>
                    <path d="M11.5081967,15.3548387 C11.5081967,15.3548387 11.8918033,13.9505035 12.147541,14.0842497 C12.4032787,14.2179959 12.7868852,15.3548387 12.7868852,15.3548387" id="Shape" stroke="#000000" stroke-width="0.9888" stroke-linecap="round" stroke-linejoin="round"></path>
                    <path d="M10.2295082,12.7956989 C10.2295082,12.7956989 0.971155841,14.6510753 0,15.3548387" id="Shape" stroke="#000000" stroke-width="0.9888" stroke-linecap="round" stroke-linejoin="round"></path>
                    <path d="M8.95081967,14.0752688 C8.95081967,14.0752688 1.63336125,16.2688172 0,17.9139785" id="Shape" stroke="#000000" stroke-width="0.9888" stroke-linecap="round" stroke-linejoin="round"></path>
                    <ellipse id="Oval" fill="#000000" fill-rule="nonzero" cx="8.31147541" cy="9.59677419" rx="1" ry="1"></ellipse>
                </g> -->
                <path d="M102.922131,238 L136.192623,238 C141.485656,238 145.770492,233.695257 145.770492,228.377634 L145.770492,177.860215 L93.3442623,177.860215 L93.3442623,228.377634 C93.4072746,233.695257 97.6290984,238 102.922131,238 Z" id="Shape" stroke="#000000" stroke-width="2.272768" fill="#EECEC3" fill-rule="nonzero" stroke-linecap="round" stroke-linejoin="round"></path>
                <path d="M145.770492,177.22043 C145.770492,178.976703 133.449952,180.419355 118.918033,180.419355 C104.386114,180.419355 92.0655738,178.976703 92.0655738,177.22043 C92.0655738,175.464158 104.386114,174.021505 118.918033,174.021505 C133.449952,174.021505 145.770492,175.464158 145.770492,177.22043 Z" id="Shape" fill="#000000" fill-rule="nonzero"></path>
            </g>
        </g>
    </g>
</svg>