 <svg width="153px" height="20px" viewBox="0 0 153 20" version="1.1" xmlns="http://www.w3.org/2000/svg" xmlns:xlink="http://www.w3.org/1999/xlink">
  <g id="Artboard" stroke="none" stroke-width="1" fill="none" fill-rule="evenodd">
    <g id="logo-full" transform="translate(0.783648, 0.783648)" fill="#000000">
      <path d="M29.7062968,3.40009516 C29.7062968,3.22112833 29.8674218,3.06027778 30.0461142,3.06027778 L31.2269658,3.06027778 C31.4237744,3.06027778 31.5667832,3.22112833 31.5667832,3.40009516 L31.5667832,9.56319652 L38.1149926,9.56319652 L38.1149926,3.40009516 C38.1149926,3.22112833 38.2582758,3.06027778 38.45481,3.06027778 L39.6351126,3.06027778 C39.8146284,3.06027778 39.975479,3.22112833 39.975479,3.40009516 L39.975479,15.2434717 C39.975479,15.4224386 39.8146284,15.5835636 39.6351126,15.5835636 L38.45481,15.5835636 C38.3645896,15.5835637 38.2780724,15.5476863 38.2143285,15.4838394 C38.1505846,15.4199925 38.1148468,15.3334175 38.1149926,15.2431972 L38.1149926,11.2455396 L31.5667832,11.2455396 L31.5667832,15.2437462 C31.5667832,15.422713 31.4237744,15.5838381 31.2269658,15.5838381 L30.0461142,15.5838381 C29.8674218,15.5838381 29.7062968,15.422713 29.7062968,15.2434717 L29.7062968,3.40036965 L29.7062968,3.40009516 Z M57.1535491,11.3254159 L54.9529709,6.42359141 L54.8634875,6.42359141 L52.680751,11.3254159 L57.1535491,11.3254159 L57.1535491,11.3254159 Z M49.0492616,15.1183048 L54.5412374,3.07811957 C54.5950372,2.97079437 54.7561623,2.88103647 54.8453712,2.88103647 L55.0246125,2.88103647 C55.1140959,2.88103647 55.2749465,2.97079437 55.3287463,3.07811957 L60.7850385,15.1183048 C60.8929127,15.3507969 60.7496294,15.5835636 60.4809047,15.5835636 L59.3541274,15.5835636 C59.1392025,15.5835636 59.0140355,15.4759639 58.9426684,15.3151134 L57.8337329,12.8639267 L51.9832745,12.8639267 C51.6253408,13.6871191 51.2495654,14.4916464 50.8919062,15.3151134 C50.8199916,15.4782867 50.6584906,15.5835854 50.4801727,15.5835636 L49.3533954,15.5835636 C49.0846707,15.5835636 48.9419364,15.3507969 49.0492616,15.1183048 L49.0492616,15.1183048 Z M67.1202445,3.52526214 C67.0131938,3.29276996 67.155928,3.06027778 67.4243783,3.06027778 L68.6947133,3.06027778 C68.8379966,3.06027778 68.9631636,3.16732849 68.9988471,3.2568119 L72.9350193,12.1126503 L73.04207,12.1126503 L76.9782422,3.2568119 C77.0139257,3.16760298 77.1209764,3.06027778 77.281827,3.06027778 L78.5518876,3.06027778 C78.8208868,3.06027778 78.9636211,3.29276996 78.8565704,3.52526214 L73.3640456,15.5654473 C73.3102458,15.673047 73.2031951,15.7625304 73.0599118,15.7625304 L72.880945,15.7625304 C72.755778,15.7625304 72.630611,15.673047 72.5765367,15.5654473 L67.1202445,3.52526214 Z M87.9374897,3.40009516 C87.9374897,3.22112833 88.0804985,3.06027778 88.2773071,3.06027778 L96.2915622,3.06027778 C96.4878218,3.06027778 96.6313796,3.22112833 96.6313796,3.40009516 L96.6313796,4.40170549 C96.6313796,4.5809468 96.4878218,4.74179735 96.2915622,4.74179735 L89.7801343,4.74179735 L89.7801343,9.56319652 L94.5315388,9.56319652 C94.7105056,9.56319652 94.8719051,9.72432155 94.8719051,9.90301389 L94.8719051,10.9048987 C94.8719051,11.1019818 94.7105056,11.2449906 94.5315388,11.2449906 L89.7801343,11.2449906 L89.7801343,13.9190623 L96.2915622,13.9190623 C96.4793269,13.9193652 96.6313798,14.0716637 96.6313796,14.2594287 L96.6313796,15.2431972 C96.6313796,15.4221641 96.4878218,15.5832891 96.2915622,15.5832891 L88.2773071,15.5832891 C88.1870867,15.5832892 88.1005695,15.5474118 88.0368256,15.4835649 C87.9730817,15.419718 87.937344,15.333143 87.9374897,15.2429228 L87.9374897,3.40036965 L87.9374897,3.40009516 Z M105.545135,3.20328655 C105.545135,3.02514319 105.689516,2.88103647 105.867111,2.88103647 L106.231358,2.88103647 C106.295314,2.88103647 106.355976,2.90875986 106.398247,2.95706992 L114.09684,11.8617673 L114.114682,11.8617673 L114.114682,3.39982067 C114.114682,3.22085384 114.257416,3.06000329 114.454499,3.06000329 L115.599941,3.06000329 C115.786594,3.06000329 115.939759,3.21289366 115.939759,3.39982067 L115.939759,15.4402803 C115.939759,15.6181492 115.795378,15.7622559 115.617234,15.7622559 L115.237067,15.7622559 C115.171973,15.7622647 115.110195,15.7335355 115.068256,15.6837521 L107.369938,6.53064212 L107.352096,6.53064212 L107.352096,15.2434717 C107.352096,15.4221641 107.209362,15.5832891 107.012279,15.5832891 L105.884953,15.5832891 C105.697527,15.5826865 105.545738,15.4308975 105.545135,15.2434717 L105.545135,3.20328655 Z M126.143064,3.40009516 C126.143064,3.22112833 126.286347,3.06027778 126.482881,3.06027778 L127.663733,3.06027778 C127.8427,3.06027778 128.00355,3.22112833 128.00355,3.40009516 L128.00355,13.9193368 L135.057094,13.9193368 C135.244858,13.9196397 135.396911,14.0719382 135.396911,14.2597032 L135.396911,15.2434717 C135.396911,15.4224386 135.253628,15.5835636 135.057094,15.5835636 L126.482881,15.5835636 C126.392661,15.5835637 126.306143,15.5476863 126.2424,15.4838394 C126.178656,15.4199925 126.142918,15.3334175 126.143064,15.2431972 L126.143064,3.40036965 L126.143064,3.40009516 Z M145.643311,9.55441287 L141.45653,3.57878749 C141.313796,3.34629531 141.45653,3.06000329 141.743097,3.06000329 L143.066683,3.06000329 C143.21024,3.06000329 143.299449,3.14948671 143.353249,3.22112833 L146.591121,7.7831354 L149.829542,3.22112833 C149.883342,3.14921222 149.990393,3.06000329 150.115834,3.06000329 L151.457537,3.06000329 C151.744103,3.06000329 151.886837,3.34602082 151.744103,3.57878749 L147.503797,9.53657108 L147.503797,15.2437462 C147.503797,15.4221641 147.342398,15.5835636 147.16398,15.5835636 L145.983128,15.5835636 C145.892981,15.5836365 145.806504,15.5478578 145.74276,15.4841139 C145.679016,15.42037 145.643238,15.3338937 145.643311,15.2437462 L145.643311,9.55441287 L145.643311,9.55441287 Z M0.468278222,9.55935367 L0.080150786,9.17177521 L9.17177521,0.0804252749 L9.55962816,0.468003733 L0.468278222,9.55935367 Z" id="Shape"></path>
            <polygon id="Path" points="9.17150072 18.6507036 0.0804252749 9.55962816 0.468278222 9.17177521 9.55935367 18.2631251"></polygon>
            <polygon id="Path" points="9.55962816 18.6507036 9.17177521 18.2631251 18.2628507 9.1720497 18.6509781 9.55935367"></polygon>
            <path d="M18.2631251,9.55935367 L9.17177521,0.468003733 L9.55962816,0.0804252749 L18.6507036,9.17177521 L18.2631251,9.55935367 Z M4.54581221,13.9111022 L5.09424122,13.9111022 L5.09424122,4.82002672 L4.54581221,4.82002672 L4.54581221,13.9111022 Z" id="Shape"></path>
            <polygon id="Path" points="4.82002672 14.1855912 13.9113767 14.1855912 13.9113767 13.6366132 4.82002672 13.6366132"></polygon>
            <polygon id="Path" points="13.6371621 13.9111022 14.1855912 13.9111022 14.1855912 4.82002672 13.6371621 4.82002672"></polygon>
            <polygon id="Path" points="4.82002672 5.09451571 13.9113767 5.09451571 13.9113767 4.54553772 4.82002672 4.54553772"></polygon>
            <path d="M13.9111022,14.1855912 C13.8384419,14.1854478 13.7688213,14.1564145 13.7175874,14.1048914 L11.4445441,11.8321225 C11.3932317,11.7806803 11.3644087,11.7109919 11.3643933,11.6383333 L11.3643933,7.09279558 C11.364336,7.0200419 11.3931645,6.95024146 11.4445441,6.89873186 L13.7173129,4.625963 C13.8255308,4.52621736 13.9931584,4.52957111 14.0973001,4.63356546 C14.2014417,4.73755982 14.2050327,4.90518247 14.1054404,5.01354146 L11.9128223,7.20615953 L11.9128223,11.5246949 L14.1054404,13.7173129 C14.1840907,13.7956713 14.207669,13.9137522 14.1651434,14.0163069 C14.1226178,14.1188616 14.0223983,14.1856082 13.9113767,14.1853167 M4.82002672,14.1855912 C4.70870203,14.1863814 4.60799362,14.1196551 4.56532091,14.0168307 C4.52264819,13.9140063 4.546517,13.7955797 4.62568851,13.7173129 L6.81858107,11.5246949 L6.81858107,7.20615953 L4.62568851,5.01354146 C4.55645428,4.94420917 4.52946756,4.84320747 4.55489397,4.74858273 C4.58032038,4.65395799 4.65429705,4.58008595 4.74895769,4.5547935 C4.84361833,4.52950105 4.94458172,4.55663071 5.01381595,4.625963 L7.28658481,6.89873186 C7.33799785,6.95012928 7.36692181,7.01982317 7.36701008,7.09252109 L7.36701008,11.6383333 C7.36699465,11.7109919 7.33817169,11.7806803 7.2868593,11.8321225 L5.01381595,14.1048914 C4.96246986,14.1563811 4.8927427,14.1853189 4.82002672,14.1853167" id="Shape"></path>
            <polygon id="Path" points="7.09252109 9.64005343 11.6383333 9.64005343 11.6383333 9.09107545 7.09252109 9.09107545"></polygon>
            <path d="M9.36556444,0.548429008 C4.5038154,0.548429008 0.548429008,4.5038154 0.548429008,9.36556444 C0.548429008,14.2273135 4.5038154,18.1826999 9.36556444,18.1826999 C14.2273135,18.1826999 18.1826999,14.2273135 18.1826999,9.36556444 C18.1826999,4.5038154 14.2273135,0.548429008 9.36556444,0.548429008 M9.36556444,18.7311289 C4.20132853,18.7311289 0,14.5298004 0,9.36556444 C0,4.20132853 4.20132853,0 9.36556444,0 C14.5298004,0 18.7311289,4.20132853 18.7311289,9.36556444 C18.7311289,14.5298004 14.5298004,18.7311289 9.36556444,18.7311289" id="Shape"></path>
        </g>
    </g>
</svg>